<!-- 한라산 — 백록담과 산 풍경 (고퀄 리터치) -->
<svg xmlns="http://www.w3.org/2000/svg" viewBox="0 0 1440 760" preserveAspectRatio="xMidYMax slice">
  <defs>
    <filter id="sk"><feTurbulence type="fractalNoise" baseFrequency="0.016" numOctaves="2" seed="7" result="n"/><feDisplacementMap in="SourceGraphic" in2="n" scale="5"/></filter>
    <filter id="soft"><feGaussianBlur stdDeviation="6"/></filter>

    <!-- 하늘: 위쪽 파랑 → 지평선 근처 옅은 살구빛 -->
    <linearGradient id="sky" x1="0" y1="0" x2="0" y2="1">
      <stop offset="0" stop-color="#bfe0f2"/><stop offset="0.55" stop-color="#dcecf6"/><stop offset="1" stop-color="#f3efe4"/>
    </linearGradient>
    <!-- 한라산 본체 명암 -->
    <linearGradient id="mtn" x1="0" y1="0" x2="0.3" y2="1">
      <stop offset="0" stop-color="#f0f6ea"/><stop offset="0.45" stop-color="#dcecca"/><stop offset="1" stop-color="#bcd6a4"/>
    </linearGradient>
    <!-- 좌측(음지) 그림자용 -->
    <linearGradient id="mtnShade" x1="0" y1="0" x2="1" y2="0.3">
      <stop offset="0" stop-color="#9db98a" stop-opacity="0.55"/><stop offset="1" stop-color="#9db98a" stop-opacity="0"/>
    </linearGradient>
    <!-- 먼 능선 (대기 원근) -->
    <linearGradient id="ridgeFar" x1="0" y1="0" x2="0" y2="1">
      <stop offset="0" stop-color="#cfe0d6"/><stop offset="1" stop-color="#bcd3c6"/>
    </linearGradient>
    <linearGradient id="ridgeMid" x1="0" y1="0" x2="0" y2="1">
      <stop offset="0" stop-color="#bcd6b2"/><stop offset="1" stop-color="#a7c79c"/>
    </linearGradient>
    <linearGradient id="forestGrad" x1="0" y1="0" x2="0" y2="1">
      <stop offset="0" stop-color="#bcd9a4"/><stop offset="1" stop-color="#9cc182"/>
    </linearGradient>
    <linearGradient id="fieldGrad" x1="0" y1="0" x2="0" y2="1">
      <stop offset="0" stop-color="#dcecc4"/><stop offset="1" stop-color="#c7e0aa"/>
    </linearGradient>
    <radialGradient id="lake" cx="0.4" cy="0.35" r="0.8">
      <stop offset="0" stop-color="#cdeef6"/><stop offset="0.6" stop-color="#9fd4e8"/><stop offset="1" stop-color="#79bcd6"/>
    </radialGradient>
    <radialGradient id="sun" cx="0.5" cy="0.5" r="0.5">
      <stop offset="0" stop-color="#fff3cf"/><stop offset="0.7" stop-color="#ffe08c"/><stop offset="1" stop-color="#ffd36a"/>
    </radialGradient>

    <g id="cloud">
      <path d="M10,36 C1,36 -5,27 2,21 C-1,10 12,4 20,11 C25,-1 44,-2 50,9 C61,3 75,10 71,22 C82,23 82,36 71,36 Z" fill="#ffffff"/>
      <path d="M10,36 C1,36 -5,27 2,21 C-1,10 12,4 20,11 C25,-1 44,-2 50,9 C61,3 75,10 71,22 C82,23 82,36 71,36 Z" fill="none" stroke="#40514a" stroke-width="2"/>
      <path d="M14,31 C24,35 40,35 52,31" fill="none" stroke="#bcd6ea" stroke-width="1.6" opacity="0.7"/>
    </g>
    <!-- 침엽수 (구상나무) -->
    <g id="fir">
      <line x1="0" y1="4" x2="0" y2="-10" stroke="#6b4a28" stroke-width="4"/>
      <path d="M-15,2 L0,-30 L15,2 Z" fill="#4e7d3a" stroke="#33582a" stroke-width="1.6"/>
      <path d="M-12,-10 L0,-40 L12,-10 Z" fill="#5f8f3f" stroke="#33582a" stroke-width="1.6"/>
      <path d="M-8,-22 L0,-48 L8,-22 Z" fill="#6f9f48" stroke="#33582a" stroke-width="1.4"/>
    </g>
    <!-- 둥근 활엽수 -->
    <g id="tree">
      <line x1="0" y1="2" x2="0" y2="-12" stroke="#7d5c36" stroke-width="4"/>
      <circle cx="0" cy="-24" r="16" fill="#5f8f3f" stroke="#33582a" stroke-width="1.8"/>
      <path d="M-10,-30 a11,11 0 0 1 14,-4" fill="none" stroke="#8fc06a" stroke-width="2" opacity="0.7"/>
    </g>
  </defs>

  <rect width="1440" height="760" fill="url(#sky)"/>
  <g filter="url(#sk)" stroke-linecap="round" stroke-linejoin="round">

    <!-- 해 + 은은한 빛무리 -->
    <circle cx="1208" cy="120" r="78" fill="#fff2c8" opacity="0.5" filter="url(#soft)"/>
    <circle cx="1208" cy="120" r="50" fill="url(#sun)" stroke="#f2c25a" stroke-width="2"/>

    <!-- 구름 · 새 -->
    <use href="#cloud" transform="translate(110,104) scale(1.35)"/>
    <use href="#cloud" transform="translate(430,60) scale(0.98)"/>
    <use href="#cloud" transform="translate(940,150) scale(0.72)" opacity="0.95"/>
    <path d="M320,180 q12,-12 24,0 q12,-12 24,0" fill="none" stroke="#40514a" stroke-width="2.2"/>
    <path d="M400,152 q9,-9 18,0 q9,-9 18,0" fill="none" stroke="#40514a" stroke-width="2.2"/>
    <path d="M360,205 q7,-7 14,0 q7,-7 14,0" fill="none" stroke="#40514a" stroke-width="2" opacity="0.75"/>

    <!-- 먼 능선 (대기 원근: 가장 옅게) -->
    <path d="M-20,470 C180,430 360,438 520,452 C700,468 760,452 900,442 C1080,430 1280,452 1460,470 L1460,520 L-20,520 Z" fill="url(#ridgeFar)" opacity="0.85"/>
    <!-- 중간 능선 -->
    <path d="M-20,500 C160,470 320,478 470,470 C560,466 620,440 700,420 C760,406 800,418 860,432 C1000,464 1240,486 1460,500 L1460,540 L-20,540 Z" fill="url(#ridgeMid)" opacity="0.9"/>

    <!-- 한라산 본체 -->
    <path d="M-20,560 C160,520 340,490 470,462 C580,438 640,380 668,300 C684,252 700,222 716,214 C722,212 730,214 734,218 C740,214 748,212 754,214 C772,222 790,254 806,302 C836,388 900,444 1010,472 C1150,506 1320,532 1460,556 L1460,760 L-20,760 Z" fill="url(#mtn)"/>
    <!-- 좌측 음영 -->
    <path d="M-20,560 C160,520 340,490 470,462 C580,438 640,380 668,300 C684,252 700,222 716,214 L716,760 L-20,760 Z" fill="url(#mtnShade)"/>
    <!-- 능선 외곽선 -->
    <path d="M-20,560 C160,520 340,490 470,462 C580,438 640,380 668,300 C684,252 700,222 716,214 C722,212 730,214 734,218 C740,214 748,212 754,214 C772,222 790,254 806,302 C836,388 900,444 1010,472 C1150,506 1320,532 1460,556" fill="none" stroke="#40514a" stroke-width="2.6"/>

    <!-- 정상 눈자락(잔설) -->
    <path d="M676,262 C700,250 744,250 766,264 C748,278 754,300 742,318 C732,300 710,300 700,318 C690,300 686,276 676,262 Z" fill="#f6fbf2" opacity="0.85"/>
    <path d="M642,304 C664,296 690,300 704,312 C688,318 664,316 650,326 C648,318 644,310 642,304 Z" fill="#eef6e6" opacity="0.7"/>
    <path d="M780,300 C800,294 826,300 838,314 C820,318 800,314 788,322 C786,314 784,306 780,300 Z" fill="#eef6e6" opacity="0.7"/>

    <!-- 백록담 (분화구 호수) + 잔물결·하이라이트 -->
    <ellipse cx="722" cy="224" rx="48" ry="11" fill="url(#lake)" stroke="#40514a" stroke-width="2.2"/>
    <path d="M700,220 q10,4 22,4 q14,0 24,-4" fill="none" stroke="#ffffff" stroke-width="1.6" opacity="0.7"/>
    <path d="M704,228 q12,3 20,3 q10,0 18,-2" fill="none" stroke="#bfe6f2" stroke-width="1.4" opacity="0.8"/>
    <!-- 정상부 바위 -->
    <path d="M664,246 C688,232 758,232 782,248 C758,258 688,258 664,246 Z" fill="#f0f5ea" opacity="0.6"/>
    <path d="M690,244 l6,-6 6,6 M736,244 l6,-6 6,6" fill="none" stroke="#9db98a" stroke-width="1.6" opacity="0.6"/>

    <!-- 골짜기 능선 -->
    <path d="M704,240 C670,320 610,398 540,450" fill="none" stroke="#7f9a6a" stroke-width="1.8"/>
    <path d="M742,240 C770,326 830,404 906,458" fill="none" stroke="#7f9a6a" stroke-width="1.8" opacity="0.6"/>
    <path d="M690,252 C620,320 520,380 430,430" fill="none" stroke="#7f9a6a" stroke-width="1.6" opacity="0.45"/>
    <path d="M760,250 C850,320 970,388 1080,436" fill="none" stroke="#7f9a6a" stroke-width="1.6" opacity="0.4"/>
    <path d="M480,470 C640,430 830,428 980,468" fill="none" stroke="#7f9a6a" stroke-width="1.6" opacity="0.5"/>
    <path d="M380,510 C620,462 860,464 1090,506" fill="none" stroke="#7f9a6a" stroke-width="1.6" opacity="0.35"/>
    <!-- 우측 햇빛 하이라이트 -->
    <path d="M812,320 C860,382 940,432 1030,462" fill="none" stroke="#f4faec" stroke-width="3" opacity="0.55"/>

    <!-- 산허리 걸린 구름(안개 띠) -->
    <ellipse cx="470" cy="452" rx="150" ry="20" fill="#ffffff" opacity="0.5" filter="url(#soft)"/>
    <ellipse cx="960" cy="470" rx="130" ry="16" fill="#ffffff" opacity="0.45" filter="url(#soft)"/>
    <use href="#cloud" transform="translate(540,338) scale(1.05)" opacity="0.92"/>
    <use href="#cloud" transform="translate(852,376) scale(0.8)" opacity="0.88"/>

    <!-- 오름 두 개 -->
    <path d="M110,600 C165,544 250,544 305,600 Z" fill="#bcd6a4" stroke="#40514a" stroke-width="2" opacity="0.95"/>
    <path d="M205,560 C200,578 188,592 172,600" fill="none" stroke="#7f9a6a" stroke-width="1.6" opacity="0.5"/>
    <path d="M150,600 C170,566 240,566 262,598" fill="none" stroke="#8fae6f" stroke-width="1.4" opacity="0.4"/>
    <path d="M1148,608 C1200,556 1276,556 1322,608 Z" fill="#bcd6a4" stroke="#40514a" stroke-width="2" opacity="0.95"/>
    <path d="M1236,570 C1232,586 1222,598 1208,606" fill="none" stroke="#7f9a6a" stroke-width="1.6" opacity="0.45"/>

    <!-- 숲 띠 (그라데이션) -->
    <path d="M-20,620 C240,592 480,606 720,596 C960,586 1220,604 1460,592 L1460,760 L-20,760 Z" fill="url(#forestGrad)"/>
    <path d="M-20,620 C240,592 480,606 720,596 C960,586 1220,604 1460,592" fill="none" stroke="#40514a" stroke-width="2.2"/>
    <!-- 뒷줄 나무(작게, 흐리게) -->
    <use href="#fir" transform="translate(150,636) scale(0.7)" opacity="0.8"/>
    <use href="#tree" transform="translate(400,634) scale(0.7)" opacity="0.8"/>
    <use href="#fir" transform="translate(680,636) scale(0.7)" opacity="0.8"/>
    <use href="#tree" transform="translate(980,634) scale(0.7)" opacity="0.8"/>
    <use href="#fir" transform="translate(1260,636) scale(0.7)" opacity="0.8"/>
    <!-- 앞줄 나무 -->
    <use href="#fir" transform="translate(90,656)"/><use href="#tree" transform="translate(205,648) scale(0.9)"/>
    <use href="#fir" transform="translate(330,660) scale(1.05)"/><use href="#tree" transform="translate(470,650) scale(1.1)"/>
    <use href="#fir" transform="translate(610,658) scale(0.92)"/><use href="#tree" transform="translate(760,652)"/>
    <use href="#fir" transform="translate(900,660) scale(0.88)"/><use href="#tree" transform="translate(1040,648) scale(1.1)"/>
    <use href="#fir" transform="translate(1190,658)"/><use href="#tree" transform="translate(1330,650) scale(0.92)"/>

    <!-- 앞들판 + 철쭉 -->
    <path d="M-20,690 C300,668 700,684 1060,672 C1240,666 1380,674 1460,678 L1460,760 L-20,760 Z" fill="url(#fieldGrad)"/>
    <path d="M-20,690 C300,668 700,684 1060,672 C1240,666 1380,674 1460,678" fill="none" stroke="#9cb884" stroke-width="2"/>
    <!-- 풀결 -->
    <path d="M120,732 q3,-12 0,-20 M260,738 q3,-12 0,-20 M600,742 q3,-12 0,-20 M760,740 q-3,-10 2,-18 M960,742 q3,-12 0,-20 M1300,738 q3,-12 0,-20" fill="none" stroke="#a7c886" stroke-width="2" opacity="0.7"/>
    <!-- 철쭉 덤불 -->
    <g>
      <circle cx="180" cy="716" r="8" fill="#f2a0c0"/><circle cx="197" cy="724" r="7" fill="#ee8db3"/><circle cx="166" cy="726" r="7" fill="#f4b0cc"/><circle cx="184" cy="730" r="6" fill="#ee8db3"/>
      <circle cx="518" cy="732" r="8" fill="#f2a0c0"/><circle cx="536" cy="724" r="7" fill="#ee8db3"/><circle cx="504" cy="726" r="6" fill="#f4b0cc"/>
      <circle cx="858" cy="714" r="8" fill="#f2a0c0"/><circle cx="876" cy="722" r="7" fill="#ee8db3"/><circle cx="846" cy="724" r="7" fill="#f4b0cc"/><circle cx="864" cy="728" r="6" fill="#ee8db3"/>
      <circle cx="1198" cy="728" r="8" fill="#f2a0c0"/><circle cx="1216" cy="720" r="7" fill="#ee8db3"/><circle cx="1184" cy="722" r="6" fill="#f4b0cc"/>
    </g>

    <!-- 노루 (음영·표정 보강) -->
    <g transform="translate(1078,662)">
      <ellipse cx="2" cy="4" rx="30" ry="9" fill="#7d5c36" opacity="0.18"/>
      <ellipse cx="0" cy="0" rx="30" ry="18" fill="#d9b48a" stroke="#8a6b4a" stroke-width="2.4"/>
      <path d="M-30,0 C-26,-8 -10,-10 0,-8" fill="#e6c79f" opacity="0.7"/>
      <line x1="-20" y1="14" x2="-22" y2="42" stroke="#8a6b4a" stroke-width="4"/>
      <line x1="-8" y1="16" x2="-8" y2="42" stroke="#8a6b4a" stroke-width="4"/>
      <line x1="10" y1="16" x2="10" y2="42" stroke="#8a6b4a" stroke-width="4"/>
      <line x1="22" y1="14" x2="26" y2="42" stroke="#8a6b4a" stroke-width="4"/>
      <ellipse cx="36" cy="-18" rx="9" ry="11" fill="#d9b48a" stroke="#8a6b4a" stroke-width="2.4"/>
      <path d="M30,-28 L26,-42 M40,-28 L44,-44 M44,-44 L50,-50 M44,-44 L38,-49" fill="none" stroke="#8a6b4a" stroke-width="2.4"/>
      <circle cx="40" cy="-20" r="2" fill="#40514a"/>
      <path d="M30,-8 q-3,4 0,8" fill="none" stroke="#8a6b4a" stroke-width="1.6"/>
      <path d="M-28,-4 q-9,1 -10,10" fill="none" stroke="#8a6b4a" stroke-width="3"/>
      <circle cx="-30" cy="6" r="3" fill="#f6fbf2" opacity="0.9"/>
    </g>
  </g>
</svg>
