<!-- 애월 — 카페거리 (손그림 스케치 스타일 배경 일러스트) -->
<svg xmlns="http://www.w3.org/2000/svg" viewBox="0 0 1440 760" preserveAspectRatio="xMidYMax slice">
  <defs>
    <filter id="sk"><feTurbulence type="fractalNoise" baseFrequency="0.016" numOctaves="2" seed="7" result="n"/><feDisplacementMap in="SourceGraphic" in2="n" scale="5"/></filter>
    <g id="cloud">
      <path d="M10,36 C1,36 -5,27 2,21 C-1,10 12,4 20,11 C25,-1 44,-2 50,9 C61,3 75,10 71,22 C82,23 82,36 71,36 Z" fill="#ffffff"/>
      <path d="M10,36 C1,36 -5,27 2,21 C-1,10 12,4 20,11 C25,-1 44,-2 50,9 C61,3 75,10 71,22 C82,23 82,36 71,36 Z" fill="none" stroke="#40514a" stroke-width="2"/>
    </g>
    <g id="stone">
      <ellipse rx="34" ry="20" fill="#6f6c77" stroke="#26242b" stroke-width="1.6"/>
      <circle cx="-8" cy="-3" r="2.4" fill="#201f25" opacity="0.55"/>
      <circle cx="10" cy="5" r="1.8" fill="#201f25" opacity="0.55"/>
    </g>
    <g id="pot">
      <path d="M-16,0 L16,0 L11,26 L-11,26 Z" fill="#c96f4a" stroke="#40514a" stroke-width="2"/>
      <circle cx="-6" cy="-8" r="8" fill="#6f9a3a"/><circle cx="5" cy="-12" r="9" fill="#7fae49"/><circle cx="10" cy="-4" r="7" fill="#6f9a3a"/>
    </g>
  </defs>

  <rect width="1440" height="760" fill="#e3f1fb"/>
  <g filter="url(#sk)" stroke-linecap="round" stroke-linejoin="round">

    <!-- 해 · 구름 · 새 -->
    <circle cx="1190" cy="112" r="50" fill="#ffdf8a" stroke="#40514a" stroke-width="2"/>
    <use href="#cloud" transform="translate(150,84) scale(1.35)"/>
    <use href="#cloud" transform="translate(520,60) scale(0.95)"/>
    <use href="#cloud" transform="translate(900,140) scale(0.7)"/>
    <path d="M1010,180 q12,-12 24,0 q12,-12 24,0" fill="none" stroke="#40514a" stroke-width="2.4"/>
    <path d="M1090,210 q9,-9 18,0 q9,-9 18,0" fill="none" stroke="#40514a" stroke-width="2.4"/>

    <!-- 애월 바다 -->
    <rect x="-20" y="308" width="1480" height="130" fill="#9fd4e4"/>
    <line x1="-20" y1="308" x2="1460" y2="308" stroke="#8fc0d4" stroke-width="2.5"/>
    <path d="M60,346 q18,-7 36,0" fill="none" stroke="#ffffff" stroke-width="2.4" opacity="0.85"/>
    <path d="M220,372 q18,-7 36,0" fill="none" stroke="#ffffff" stroke-width="2.4" opacity="0.85"/>
    <path d="M420,350 q18,-7 36,0" fill="none" stroke="#ffffff" stroke-width="2.4" opacity="0.85"/>
    <path d="M640,380 q18,-7 36,0" fill="none" stroke="#ffffff" stroke-width="2.4" opacity="0.85"/>
    <path d="M900,352 q18,-7 36,0" fill="none" stroke="#ffffff" stroke-width="2.4" opacity="0.85"/>
    <path d="M1160,376 q18,-7 36,0" fill="none" stroke="#ffffff" stroke-width="2.4" opacity="0.85"/>
    <path d="M1330,344 q18,-7 36,0" fill="none" stroke="#ffffff" stroke-width="2.4" opacity="0.85"/>
    <!-- 작은 돛단배 -->
    <g transform="translate(1050,300)">
      <path d="M-28,26 L28,26 L18,38 L-18,38 Z" fill="#f4ece0" stroke="#40514a" stroke-width="2"/>
      <line x1="0" y1="26" x2="0" y2="-14" stroke="#40514a" stroke-width="2.4"/>
      <path d="M0,-14 L24,20 L0,20 Z" fill="#ffffff" stroke="#40514a" stroke-width="2"/>
    </g>

    <!-- 해안 돌담 -->
    <use href="#stone" transform="translate(20,452)"/><use href="#stone" transform="translate(90,448) rotate(6)"/>
    <use href="#stone" transform="translate(160,454) rotate(-5)"/><use href="#stone" transform="translate(1000,450) rotate(4)"/>
    <use href="#stone" transform="translate(1075,456) rotate(-6)"/><use href="#stone" transform="translate(1150,449)"/>
    <use href="#stone" transform="translate(1225,455) rotate(7)"/><use href="#stone" transform="translate(1300,449) rotate(-4)"/>
    <use href="#stone" transform="translate(1375,455)"/><use href="#stone" transform="translate(1445,450) rotate(5)"/>

    <!-- 카페거리 바닥 -->
    <rect x="-20" y="438" width="1480" height="322" fill="#f0e5cb"/>
    <line x1="-20" y1="438" x2="1460" y2="438" stroke="#d9c9a0" stroke-width="2"/>
    <path d="M100,560 L340,560 M520,640 L820,640 M1000,590 L1300,590 M200,700 L520,700" stroke="#dfd1ab" stroke-width="2" opacity="0.8"/>

    <!-- 카페 A : 커피컵 간판 -->
    <g>
      <rect x="140" y="316" width="260" height="226" fill="#fff6e6" stroke="#40514a" stroke-width="2.4"/>
      <line x1="132" y1="316" x2="408" y2="316" stroke="#40514a" stroke-width="3"/>
      <rect x="168" y="336" width="204" height="52" rx="10" fill="#ffedd6" stroke="#40514a" stroke-width="2.2"/>
      <g transform="translate(230,352)">
        <path d="M0,4 L26,4 L23,22 L3,22 Z" fill="#ff8c1a" stroke="#40514a" stroke-width="2"/>
        <path d="M26,8 q10,4 0,10" fill="none" stroke="#40514a" stroke-width="2"/>
        <path d="M8,-2 q3,-5 0,-8 M17,-2 q3,-5 0,-8" fill="none" stroke="#40514a" stroke-width="1.8"/>
      </g>
      <text x="292" y="372" font-family="sans-serif" font-size="24" font-weight="bold" fill="#5c4a3a">COFFEE</text>
      <!-- 차양 -->
      <g>
        <path d="M150,404 q10,14 20,0 q10,14 20,0 q10,14 20,0 q10,14 20,0 q10,14 20,0 q10,14 20,0 q10,14 20,0 q10,14 20,0 q10,14 20,0 q10,14 20,0 q10,14 20,0 q10,14 20,0 L390,398 L150,398 Z" fill="#ff9a3d" stroke="#40514a" stroke-width="2"/>
      </g>
      <rect x="166" y="430" width="72" height="66" fill="#cfe7f0" stroke="#40514a" stroke-width="2.2"/>
      <line x1="202" y1="430" x2="202" y2="496" stroke="#40514a" stroke-width="1.6"/>
      <rect x="300" y="430" width="72" height="66" fill="#cfe7f0" stroke="#40514a" stroke-width="2.2"/>
      <line x1="336" y1="430" x2="336" y2="496" stroke="#40514a" stroke-width="1.6"/>
      <rect x="252" y="452" width="40" height="90" fill="#c96f4a" stroke="#40514a" stroke-width="2.2"/>
      <circle cx="284" cy="500" r="2.6" fill="#40514a"/>
    </g>

    <!-- 카페 B : 분홍 벽 + 둥근 창 -->
    <g>
      <rect x="432" y="262" width="228" height="280" fill="#ffe4de" stroke="#40514a" stroke-width="2.4"/>
      <line x1="424" y1="262" x2="668" y2="262" stroke="#40514a" stroke-width="3"/>
      <circle cx="546" cy="330" r="30" fill="#cfe7f0" stroke="#40514a" stroke-width="2.2"/>
      <line x1="516" y1="330" x2="576" y2="330" stroke="#40514a" stroke-width="1.6"/>
      <line x1="546" y1="300" x2="546" y2="360" stroke="#40514a" stroke-width="1.6"/>
      <text x="490" y="405" font-family="sans-serif" font-size="30" font-weight="bold" letter-spacing="6" fill="#8a5a50">CAFE</text>
      <path d="M440,430 q10,14 20,0 q10,14 20,0 q10,14 20,0 q10,14 20,0 q10,14 20,0 q10,14 20,0 q10,14 20,0 q10,14 20,0 q10,14 20,0 q10,14 20,0 q10,14 20,0 L660,424 L440,424 Z" fill="#ffffff" stroke="#40514a" stroke-width="2"/>
      <rect x="452" y="452" width="60" height="60" fill="#cfe7f0" stroke="#40514a" stroke-width="2.2"/>
      <rect x="586" y="452" width="60" height="60" fill="#cfe7f0" stroke="#40514a" stroke-width="2.2"/>
      <rect x="524" y="456" width="46" height="86" fill="#7d5c36" stroke="#40514a" stroke-width="2.2"/>
      <!-- 입간판 -->
      <g transform="translate(688,506)">
        <path d="M-18,0 L18,0 L12,42 L-12,42 Z" fill="#3a3742" stroke="#26242b" stroke-width="2"/>
        <path d="M-8,12 q8,-5 16,0 M-8,22 q8,-5 16,0" fill="none" stroke="#f4ece0" stroke-width="2"/>
      </g>
    </g>

    <!-- 카페 C : 민트 벽 -->
    <g>
      <rect x="724" y="340" width="200" height="202" fill="#e2f2e4" stroke="#40514a" stroke-width="2.4"/>
      <line x1="716" y1="340" x2="932" y2="340" stroke="#40514a" stroke-width="3"/>
      <rect x="744" y="358" width="160" height="42" rx="9" fill="#ffffff" stroke="#40514a" stroke-width="2.2"/>
      <text x="768" y="388" font-family="sans-serif" font-size="22" font-weight="bold" fill="#3f7d63">BAKERY</text>
      <path d="M732,416 q10,13 20,0 q10,13 20,0 q10,13 20,0 q10,13 20,0 q10,13 20,0 q10,13 20,0 q10,13 20,0 q10,13 20,0 q10,13 20,0 q10,13 20,0 L924,410 L732,410 Z" fill="#5fae8f" stroke="#40514a" stroke-width="2"/>
      <rect x="742" y="440" width="66" height="60" fill="#cfe7f0" stroke="#40514a" stroke-width="2.2"/>
      <rect x="838" y="446" width="44" height="96" fill="#c96f4a" stroke="#40514a" stroke-width="2.2"/>
    </g>

    <!-- 야자수 두 그루 -->
    <g>
      <path d="M1006,560 C1000,500 1004,440 1018,398" fill="none" stroke="#9a7648" stroke-width="8"/>
      <path d="M1018,398 C990,384 962,384 940,398" fill="none" stroke="#4e7d3a" stroke-width="6"/>
      <path d="M1018,398 C1046,382 1076,384 1098,400" fill="none" stroke="#4e7d3a" stroke-width="6"/>
      <path d="M1018,398 C1002,374 980,364 958,362" fill="none" stroke="#5f8f3f" stroke-width="6"/>
      <path d="M1018,398 C1036,372 1060,362 1084,362" fill="none" stroke="#5f8f3f" stroke-width="6"/>
      <path d="M1018,398 C1014,372 1016,352 1024,336" fill="none" stroke="#6f9a3a" stroke-width="6"/>
      <circle cx="1010" cy="404" r="6" fill="#c96f4a" stroke="#40514a" stroke-width="1.6"/>
      <circle cx="1026" cy="408" r="6" fill="#c96f4a" stroke="#40514a" stroke-width="1.6"/>
    </g>
    <g transform="translate(330,50) scale(0.8)">
      <path d="M1006,560 C1000,500 1004,440 1018,398" fill="none" stroke="#9a7648" stroke-width="8"/>
      <path d="M1018,398 C990,384 962,384 940,398" fill="none" stroke="#4e7d3a" stroke-width="6"/>
      <path d="M1018,398 C1046,382 1076,384 1098,400" fill="none" stroke="#4e7d3a" stroke-width="6"/>
      <path d="M1018,398 C1002,374 980,364 958,362" fill="none" stroke="#5f8f3f" stroke-width="6"/>
      <path d="M1018,398 C1036,372 1060,362 1084,362" fill="none" stroke="#5f8f3f" stroke-width="6"/>
    </g>

    <!-- 파라솔 테이블 -->
    <g transform="translate(1230,470)">
      <path d="M-90,66 Q0,-8 90,66 Z" fill="#ff8c1a" stroke="#40514a" stroke-width="2.4"/>
      <path d="M-58,38 Q0,4 58,38" fill="none" stroke="#ffffff" stroke-width="6"/>
      <line x1="0" y1="12" x2="0" y2="168" stroke="#40514a" stroke-width="4"/>
      <ellipse cx="0" cy="140" rx="66" ry="12" fill="#fff6e6" stroke="#40514a" stroke-width="2.4"/>
      <line x1="-52" y1="146" x2="-58" y2="196" stroke="#40514a" stroke-width="3"/>
      <line x1="52" y1="146" x2="58" y2="196" stroke="#40514a" stroke-width="3"/>
      <rect x="-118" y="142" width="34" height="10" rx="5" fill="#7d5c36" stroke="#40514a" stroke-width="2"/>
      <line x1="-104" y1="152" x2="-104" y2="192" stroke="#40514a" stroke-width="3"/>
      <rect x="86" y="142" width="34" height="10" rx="5" fill="#7d5c36" stroke="#40514a" stroke-width="2"/>
      <line x1="102" y1="152" x2="102" y2="192" stroke="#40514a" stroke-width="3"/>
    </g>

    <!-- 화분들 -->
    <use href="#pot" transform="translate(120,600)"/>
    <use href="#pot" transform="translate(420,586) scale(0.85)"/>
    <use href="#pot" transform="translate(700,610)"/>
    <use href="#pot" transform="translate(950,640) scale(1.15)"/>
    <use href="#pot" transform="translate(60,700) scale(1.2)"/>
  </g>
</svg>
