<!-- 성산·우도 — 성산일출봉과 일출 -->
<svg xmlns="http://www.w3.org/2000/svg" viewBox="0 0 1440 760" preserveAspectRatio="xMidYMax slice">
  <defs>
    <filter id="sk"><feTurbulence type="fractalNoise" baseFrequency="0.016" numOctaves="2" seed="7" result="n"/><feDisplacementMap in="SourceGraphic" in2="n" scale="5"/></filter>
    <linearGradient id="dawn" x1="0" y1="0" x2="0" y2="1">
      <stop offset="0" stop-color="#ffe3b8"/><stop offset="0.65" stop-color="#ffd9a8"/><stop offset="1" stop-color="#ffcf9a"/>
    </linearGradient>
    <g id="canola">
      <path d="M0,17 C-1.6,9 1.2,4 0,-1" fill="none" stroke="#6f9a3a" stroke-width="2"/>
      <circle cx="0" cy="-5" r="3.2" fill="#f5cf3a"/><circle cx="5" cy="0" r="3.2" fill="#f5cf3a"/>
      <circle cx="-5" cy="0" r="3.2" fill="#f5cf3a"/><circle cx="0" cy="5" r="3.2" fill="#f5cf3a"/>
      <circle r="2.4" fill="#d98a12"/>
    </g>
  </defs>

  <rect width="1440" height="760" fill="url(#dawn)"/>
  <g filter="url(#sk)" stroke-linecap="round" stroke-linejoin="round">

    <!-- 떠오르는 해 + 햇살 -->
    <circle cx="1020" cy="270" r="86" fill="#ffb15c" stroke="#e07c2a" stroke-width="2.6"/>
    <circle cx="1020" cy="270" r="110" fill="none" stroke="#ffcf8a" stroke-width="3" opacity="0.7"/>
    <path d="M1020,120 L1020,86 M902,152 L878,128 M1138,152 L1162,128 M860,270 L820,270" fill="none" stroke="#ffb15c" stroke-width="5" opacity="0.8"/>

    <!-- 새 -->
    <path d="M300,170 q12,-12 24,0 q12,-12 24,0" fill="none" stroke="#8a6b4a" stroke-width="2.4"/>
    <path d="M410,140 q9,-9 18,0 q9,-9 18,0" fill="none" stroke="#8a6b4a" stroke-width="2.4"/>
    <path d="M520,200 q8,-8 16,0 q8,-8 16,0" fill="none" stroke="#8a6b4a" stroke-width="2.2" opacity="0.8"/>

    <!-- 우도 (수평선 왼쪽 낮은 섬) -->
    <path d="M60,378 C130,352 240,346 320,354 C380,360 420,370 440,382 Z" fill="#b8a98a" stroke="#8a6b4a" stroke-width="2.2" opacity="0.9"/>
    <path d="M120,368 C160,360 220,358 260,362" fill="none" stroke="#a08f6e" stroke-width="1.8" opacity="0.7"/>

    <!-- 바다 -->
    <rect x="-20" y="382" width="1480" height="200" fill="#8fb8d8"/>
    <line x1="-20" y1="382" x2="1460" y2="382" stroke="#7aa2c4" stroke-width="2.5"/>
    <!-- 해가 비치는 윤슬 -->
    <path d="M960,410 L1080,410 M985,438 L1100,438 M950,466 L1060,466 M1000,494 L1120,494 M970,522 L1080,522 M1010,550 L1110,550" stroke="#ffcf8a" stroke-width="5" opacity="0.85"/>
    <path d="M120,430 q20,-8 40,0 M360,410 q20,-8 40,0 M560,450 q20,-8 40,0 M240,500 q22,-8 44,0 M480,540 q22,-8 44,0 M680,510 q20,-8 40,0" fill="none" stroke="#ffffff" stroke-width="2.4" opacity="0.75"/>

    <!-- 성산일출봉 -->
    <path d="M780,582 C800,520 830,440 872,368 C906,310 952,264 990,252 C1010,246 1060,242 1090,246 C1130,252 1180,272 1216,304 C1268,350 1320,440 1352,510 C1372,552 1386,572 1394,582 Z" fill="#8aa878" stroke="#40514a" stroke-width="2.6"/>
    <!-- 분화구 톱니 능선 -->
    <path d="M986,254 L1002,238 L1016,252 L1032,236 L1046,250 L1062,236 L1076,250 L1092,240 L1104,252" fill="none" stroke="#40514a" stroke-width="2.4"/>
    <!-- 분화구 안쪽 -->
    <path d="M1002,252 C1024,262 1068,262 1094,254 C1076,270 1022,270 1002,252 Z" fill="#6f8f5e" opacity="0.9"/>
    <!-- 암벽 주름 -->
    <path d="M880,380 C900,430 916,490 926,560 M940,300 C952,380 962,470 968,570 M1010,262 C1012,360 1016,470 1020,576 M1080,254 C1090,350 1100,460 1108,572 M1150,282 C1176,360 1200,460 1218,566 M1240,330 C1274,410 1304,490 1326,562" fill="none" stroke="#5f7a4e" stroke-width="2" opacity="0.75"/>
    <!-- 절벽 바위 질감 -->
    <path d="M846,440 q20,-8 40,-4 M900,500 q22,-6 44,-2 M1260,440 q20,6 38,14 M1300,500 q18,6 34,12" fill="none" stroke="#5f7a4e" stroke-width="1.8" opacity="0.6"/>
    <!-- 초록 풀 포인트 -->
    <path d="M1030,240 q4,-14 0,-22 M1054,238 q-4,-12 2,-20" fill="none" stroke="#4e7d3a" stroke-width="2.2"/>

    <!-- 해안 모래톱 -->
    <path d="M-20,582 C300,570 700,576 1080,570 C1240,568 1380,574 1460,576 L1460,760 L-20,760 Z" fill="#e8d9a8"/>
    <path d="M-20,582 C300,570 700,576 1080,570 C1240,568 1380,574 1460,576" fill="none" stroke="#c9b678" stroke-width="2.2"/>

    <!-- 유채꽃밭 -->
    <path d="M-20,640 C280,622 640,632 980,624 C1180,620 1340,628 1460,628 L1460,760 L-20,760 Z" fill="#f8de6a"/>
    <path d="M-20,640 C280,622 640,632 980,624 C1180,620 1340,628 1460,628" fill="none" stroke="#d9b93c" stroke-width="2.2"/>
    <use href="#canola" transform="translate(80,668) scale(0.8)"/><use href="#canola" transform="translate(160,684) scale(0.9)"/>
    <use href="#canola" transform="translate(250,664) scale(0.75)"/><use href="#canola" transform="translate(340,690) scale(0.95)"/>
    <use href="#canola" transform="translate(430,668) scale(0.8)"/><use href="#canola" transform="translate(520,688) scale(0.9)"/>
    <use href="#canola" transform="translate(610,662) scale(0.75)"/><use href="#canola" transform="translate(700,692) scale(1.0)"/>
    <use href="#canola" transform="translate(790,668) scale(0.85)"/><use href="#canola" transform="translate(880,690) scale(0.9)"/>
    <use href="#canola" transform="translate(970,662) scale(0.75)"/><use href="#canola" transform="translate(1060,688) scale(0.95)"/>
    <use href="#canola" transform="translate(1150,664) scale(0.8)"/><use href="#canola" transform="translate(1240,692) scale(0.9)"/>
    <use href="#canola" transform="translate(1330,666) scale(0.8)"/><use href="#canola" transform="translate(1410,690) scale(0.95)"/>
    <use href="#canola" transform="translate(120,724) scale(1.05)"/><use href="#canola" transform="translate(300,736) scale(1.1)"/>
    <use href="#canola" transform="translate(480,726) scale(1.0)"/><use href="#canola" transform="translate(660,740) scale(1.15)"/>
    <use href="#canola" transform="translate(840,728) scale(1.05)"/><use href="#canola" transform="translate(1020,738) scale(1.1)"/>
    <use href="#canola" transform="translate(1200,726) scale(1.0)"/><use href="#canola" transform="translate(1380,738) scale(1.1)"/>

    <!-- 등대 -->
    <g transform="translate(620,520)">
      <path d="M-16,62 L16,62 L10,0 L-10,0 Z" fill="#ffffff" stroke="#40514a" stroke-width="2.4"/>
      <path d="M-13,40 L13,40 M-11,20 L11,20" stroke="#ff5f4e" stroke-width="8"/>
      <rect x="-8" y="-16" width="16" height="16" fill="#ffdf8a" stroke="#40514a" stroke-width="2.2"/>
      <path d="M-12,-16 L12,-16 L0,-28 Z" fill="#ff5f4e" stroke="#40514a" stroke-width="2.2"/>
    </g>
  </g>
</svg>
